<?xml version="1.0" encoding="UTF-8"?>
<!DOCTYPE svg PUBLIC "-//W3C//DTD SVG 1.1//EN" "http://www.w3.org/Graphics/SVG/1.1/DTD/svg11.dtd">
<svg xmlns="http://www.w3.org/2000/svg" version="1.1" width="92px" height="92px" style="shape-rendering:geometricPrecision; text-rendering:geometricPrecision; image-rendering:optimizeQuality; fill-rule:evenodd; clip-rule:evenodd" xmlns:xlink="http://www.w3.org/1999/xlink">
<g><path style="opacity:0.983" fill="#212532" d="M 6.5,-0.5 C 32.8333,-0.5 59.1667,-0.5 85.5,-0.5C 87.8333,1.16667 89.8333,3.16667 91.5,5.5C 91.5,32.1667 91.5,58.8333 91.5,85.5C 89.8333,87.8333 87.8333,89.8333 85.5,91.5C 58.8333,91.5 32.1667,91.5 5.5,91.5C 3.16667,89.8333 1.16667,87.8333 -0.5,85.5C -0.5,59.1667 -0.5,32.8333 -0.5,6.5C 0.558465,5.39977 1.3918,4.06644 2,2.5C 3.65161,1.60064 5.15161,0.60064 6.5,-0.5 Z"/></g>
<g><path style="opacity:1" fill="#353b50" d="M 68.5,4.5 C 68.5,5.16667 68.5,5.83333 68.5,6.5C 67.1224,7.54508 66.1224,8.87841 65.5,10.5C 62.8333,11.8333 60.8333,13.8333 59.5,16.5C 58.8333,16.5 58.1667,16.5 57.5,16.5C 55.5,17.1667 54.1667,18.5 53.5,20.5C 52.8333,21.8333 52.1667,23.1667 51.5,24.5C 49.5,25.1667 48.1667,26.5 47.5,28.5C 46.1667,29.1667 44.8333,29.8333 43.5,30.5C 40.4797,32.5232 38.1464,35.1898 36.5,38.5C 36.5,38.8333 36.5,39.1667 36.5,39.5C 35.5,39.8333 34.8333,40.5 34.5,41.5C 33.5,41.8333 32.8333,42.5 32.5,43.5C 32.5,43.8333 32.5,44.1667 32.5,44.5C 31.8333,44.5 31.1667,44.5 30.5,44.5C 27.5768,46.4155 24.9101,48.7488 22.5,51.5C 23.6888,52.4287 25.0222,52.762 26.5,52.5C 24.5439,53.478 22.5439,54.478 20.5,55.5C 17.4862,57.5188 14.8196,59.8521 12.5,62.5C 10.9059,65.7642 8.57253,68.4309 5.5,70.5C 4.27493,71.1522 3.60826,72.3189 3.5,74C 3.79003,76.7938 5.12337,78.9604 7.5,80.5C 12.456,81.4941 17.456,81.8275 22.5,81.5C 27.0999,83.1312 32.0999,84.1312 37.5,84.5C 38.6853,85.853 40.0186,87.0197 41.5,88C 30.1667,88.6667 18.8333,88.6667 7.5,88C 5.33333,87.1667 3.83333,85.6667 3,83.5C 2.01871,57.4129 2.35204,31.4129 4,5.5C 4.90252,4.29857 6.06919,3.46524 7.5,3C 17.6667,2.83333 27.8333,2.66667 38,2.5C 48.5227,2.50134 58.6893,3.168 68.5,4.5 Z"/></g>
<g><path style="opacity:1" fill="#343b50" d="M 86.5,50.5 C 85.5437,48.2102 83.877,46.5435 81.5,45.5C 80.4809,33.1324 79.1475,20.7991 77.5,8.5C 76.4905,5.66299 74.4905,4.32966 71.5,4.5C 73.0478,3.20574 75.0478,2.53907 77.5,2.5C 82.2865,1.64439 85.7865,3.31105 88,7.5C 88.1667,14.6667 88.3333,21.8333 88.5,29C 88.4972,36.5325 87.8306,43.6992 86.5,50.5 Z"/></g>
<g><path style="opacity:1" fill="#c42827" d="M 70.5,12.5 C 68.7669,14.3545 67.7669,16.6879 67.5,19.5C 66.6981,20.9516 66.1981,22.6183 66,24.5C 65.5172,23.552 65.3505,22.552 65.5,21.5C 65.5,17.8333 65.5,14.1667 65.5,10.5C 66.1224,8.87841 67.1224,7.54508 68.5,6.5C 69.1174,6.38929 69.6174,6.05596 70,5.5C 70.5,6.66667 71.3333,7.5 72.5,8C 70.8934,9.04899 70.2267,10.549 70.5,12.5 Z"/></g>
<g><path style="opacity:1" fill="#0e0e10" d="M 71.5,4.5 C 74.4905,4.32966 76.4905,5.66299 77.5,8.5C 79.1475,20.7991 80.4809,33.1324 81.5,45.5C 83.877,46.5435 85.5437,48.2102 86.5,50.5C 86.5,50.8333 86.5,51.1667 86.5,51.5C 84.5355,50.2183 82.5355,48.885 80.5,47.5C 79.3279,47.9186 78.3279,48.5853 77.5,49.5C 77.1667,49 76.8333,48.5 76.5,48C 77.7278,44.1459 78.3945,40.1459 78.5,36C 77.3779,27.1931 76.7112,18.3598 76.5,9.5C 75.5,9.5 74.5,9.5 73.5,9.5C 73.1692,7.67761 72.5025,6.01094 71.5,4.5 Z"/></g>
<g><path style="opacity:1" fill="#ee8988" d="M 65.5,10.5 C 65.5,14.1667 65.5,17.8333 65.5,21.5C 63.9519,21.8212 63.2852,22.8212 63.5,24.5C 62.1938,25.4674 61.5271,26.8007 61.5,28.5C 59.5772,24.9707 58.9106,20.9707 59.5,16.5C 60.8333,13.8333 62.8333,11.8333 65.5,10.5 Z"/></g>
<g><path style="opacity:1" fill="#782a29" d="M 70.5,12.5 C 70.2331,15.3121 69.2331,17.6455 67.5,19.5C 67.7669,16.6879 68.7669,14.3545 70.5,12.5 Z"/></g>
<g><path style="opacity:1" fill="#0c080b" d="M 57.5,16.5 C 57.7989,18.604 57.4656,20.604 56.5,22.5C 55.7348,21.3881 54.7348,20.7214 53.5,20.5C 54.1667,18.5 55.5,17.1667 57.5,16.5 Z"/></g>
<g><path style="opacity:1" fill="#29292a" d="M 53.5,61.5 C 48.3131,64.6383 42.6464,66.6383 36.5,67.5C 32.6682,68.9215 29.3348,71.2548 26.5,74.5C 20.2879,72.8446 14.6212,74.0113 9.5,78C 14.0195,78.1753 18.3528,78.6753 22.5,79.5C 22.5,79.8333 22.5,80.1667 22.5,80.5C 22.5,80.8333 22.5,81.1667 22.5,81.5C 17.456,81.8275 12.456,81.4941 7.5,80.5C 5.12337,78.9604 3.79003,76.7938 3.5,74C 3.60826,72.3189 4.27493,71.1522 5.5,70.5C 5.23798,71.9778 5.57131,73.3112 6.5,74.5C 9.78726,72.7445 13.1206,71.4112 16.5,70.5C 29.4226,66.1925 42.4226,61.8591 55.5,57.5C 56.576,54.2655 57.2427,50.9322 57.5,47.5C 59.9799,42.4519 62.3132,37.1186 64.5,31.5C 66.126,27.6286 67.126,23.6286 67.5,19.5C 69.2331,17.6455 70.2331,15.3121 70.5,12.5C 71.2679,11.7375 71.7679,10.7375 72,9.5C 72.8253,13.2113 72.6586,16.878 71.5,20.5C 69.4708,26.6154 67.1375,32.6154 64.5,38.5C 62.8264,45.8586 61.1598,53.1919 59.5,60.5C 57.2646,60.2053 55.2646,60.5386 53.5,61.5 Z"/></g>
<g><path style="opacity:1" fill="#ab3634" d="M 67.5,19.5 C 67.126,23.6286 66.126,27.6286 64.5,31.5C 62.3132,37.1186 59.9799,42.4519 57.5,47.5C 59.2255,40.6584 61.5589,33.9917 64.5,27.5C 64.4805,26.2739 64.1471,25.2739 63.5,24.5C 63.2852,22.8212 63.9519,21.8212 65.5,21.5C 65.3505,22.552 65.5172,23.552 66,24.5C 66.1981,22.6183 66.6981,20.9516 67.5,19.5 Z"/></g>
<g><path style="opacity:1" fill="#323231" d="M 68.5,4.5 C 69.5,4.5 70.5,4.5 71.5,4.5C 72.5025,6.01094 73.1692,7.67761 73.5,9.5C 74.5,9.5 75.5,9.5 76.5,9.5C 76.7112,18.3598 77.3779,27.1931 78.5,36C 78.3945,40.1459 77.7278,44.1459 76.5,48C 76.8333,48.5 77.1667,49 77.5,49.5C 78.3279,48.5853 79.3279,47.9186 80.5,47.5C 82.5355,48.885 84.5355,50.2183 86.5,51.5C 86.5,53.1667 86.5,54.8333 86.5,56.5C 83.8333,55.8333 81.1667,55.1667 78.5,54.5C 78.5198,56.143 77.8532,57.4763 76.5,58.5C 77.6424,60.1168 78.309,61.9501 78.5,64C 77.2889,68.2432 75.9556,72.4099 74.5,76.5C 72.0706,76.8844 69.7373,77.551 67.5,78.5C 67.7118,76.6159 68.7118,75.2826 70.5,74.5C 68.9093,71.7318 66.9093,69.3984 64.5,67.5C 63.1224,66.4549 62.1224,65.1216 61.5,63.5C 59.22,61.7773 56.5533,61.1107 53.5,61.5C 55.2646,60.5386 57.2646,60.2053 59.5,60.5C 61.1598,53.1919 62.8264,45.8586 64.5,38.5C 67.1375,32.6154 69.4708,26.6154 71.5,20.5C 72.6586,16.878 72.8253,13.2113 72,9.5C 71.7679,10.7375 71.2679,11.7375 70.5,12.5C 70.2267,10.549 70.8934,9.04899 72.5,8C 71.3333,7.5 70.5,6.66667 70,5.5C 69.6174,6.05596 69.1174,6.38929 68.5,6.5C 68.5,5.83333 68.5,5.16667 68.5,4.5 Z"/></g>
<g><path style="opacity:1" fill="#e08786" d="M 51.5,24.5 C 51.5,27.8333 51.5,31.1667 51.5,34.5C 49.744,33.4479 49.0773,31.7812 49.5,29.5C 49.1583,28.6618 48.4916,28.3284 47.5,28.5C 48.1667,26.5 49.5,25.1667 51.5,24.5 Z"/></g>
<g><path style="opacity:1" fill="#0d0c10" d="M 43.5,30.5 C 43.3185,33.1951 42.3185,35.5284 40.5,37.5C 39.2921,38.2341 37.9587,38.5674 36.5,38.5C 38.1464,35.1898 40.4797,32.5232 43.5,30.5 Z"/></g>
<g><path style="opacity:1" fill="#935655" d="M 47.5,28.5 C 48.4916,28.3284 49.1583,28.6618 49.5,29.5C 48.8333,29.5 48.1667,29.5 47.5,29.5C 45.6203,32.6136 43.287,35.2802 40.5,37.5C 42.3185,35.5284 43.3185,33.1951 43.5,30.5C 44.8333,29.8333 46.1667,29.1667 47.5,28.5 Z"/></g>
<g><path style="opacity:1" fill="#fa9594" d="M 47.5,29.5 C 47.0833,32.0792 47.75,34.2458 49.5,36C 47.2089,37.3893 45.0422,38.8893 43,40.5C 42.7216,39.5842 42.2216,38.9175 41.5,38.5C 40.8333,38.5 40.5,38.1667 40.5,37.5C 43.287,35.2802 45.6203,32.6136 47.5,29.5 Z"/></g>
<g><path style="opacity:1" fill="#b72928" d="M 57.5,16.5 C 58.1667,16.5 58.8333,16.5 59.5,16.5C 58.9106,20.9707 59.5772,24.9707 61.5,28.5C 61.0526,33.3953 59.0526,37.3953 55.5,40.5C 54.6977,39.1153 54.0311,39.282 53.5,41C 53.8361,42.0299 54.5028,42.5299 55.5,42.5C 54.9026,45.3744 53.5693,47.7077 51.5,49.5C 51.5,48.5 51.5,47.5 51.5,46.5C 51.5,43.8333 51.5,41.1667 51.5,38.5C 54.436,36.9418 55.436,34.6085 54.5,31.5C 53.8589,32.9935 52.8589,33.9935 51.5,34.5C 51.5,31.1667 51.5,27.8333 51.5,24.5C 52.1667,23.1667 52.8333,21.8333 53.5,20.5C 54.7348,20.7214 55.7348,21.3881 56.5,22.5C 57.4656,20.604 57.7989,18.604 57.5,16.5 Z"/></g>
<g><path style="opacity:1" fill="#030000" d="M 55.5,27.5 C 60.3127,29.4947 60.3127,30.4947 55.5,30.5C 55.5,29.5 55.5,28.5 55.5,27.5 Z"/></g>
<g><path style="opacity:1" fill="#060101" d="M 53.5,23.5 C 55.4646,23.9483 55.7979,24.9483 54.5,26.5C 53.6143,25.675 53.281,24.675 53.5,23.5 Z"/></g>
<g><path style="opacity:1" fill="#462423" d="M 47.5,29.5 C 48.1667,29.5 48.8333,29.5 49.5,29.5C 49.0773,31.7812 49.744,33.4479 51.5,34.5C 52.8589,33.9935 53.8589,32.9935 54.5,31.5C 55.436,34.6085 54.436,36.9418 51.5,38.5C 51.44,37.9569 51.1067,37.6236 50.5,37.5C 49.7348,38.6119 48.7348,39.2786 47.5,39.5C 45.8002,39.6261 44.3002,40.2927 43,41.5C 41.9701,41.1639 41.4701,40.4972 41.5,39.5C 41.5,39.1667 41.5,38.8333 41.5,38.5C 42.2216,38.9175 42.7216,39.5842 43,40.5C 45.0422,38.8893 47.2089,37.3893 49.5,36C 47.75,34.2458 47.0833,32.0792 47.5,29.5 Z"/></g>
<g><path style="opacity:1" fill="#010000" d="M 41.5,39.5 C 41.4701,40.4972 41.9701,41.1639 43,41.5C 44.3002,40.2927 45.8002,39.6261 47.5,39.5C 47.5,41.1667 47.5,42.8333 47.5,44.5C 45.5692,45.2593 44.0692,46.5926 43,48.5C 42.6174,47.944 42.1174,47.6107 41.5,47.5C 39.5718,45.7061 37.2384,44.7061 34.5,44.5C 34.5,44.1667 34.5,43.8333 34.5,43.5C 36.5,43.5 38.5,43.5 40.5,43.5C 40.2322,41.901 40.5655,40.5676 41.5,39.5 Z"/></g>
<g><path style="opacity:1" fill="#ef8f8e" d="M 51.5,38.5 C 51.5,41.1667 51.5,43.8333 51.5,46.5C 50.1667,45.8333 48.8333,45.1667 47.5,44.5C 47.5,42.8333 47.5,41.1667 47.5,39.5C 48.7348,39.2786 49.7348,38.6119 50.5,37.5C 51.1067,37.6236 51.44,37.9569 51.5,38.5 Z"/></g>
<g><path style="opacity:1" fill="#ba2828" d="M 36.5,39.5 C 37.5,39.5 38.5,39.5 39.5,39.5C 39.5,40.5 39.5,41.5 39.5,42.5C 37.5853,42.7845 35.9187,42.4511 34.5,41.5C 34.8333,40.5 35.5,39.8333 36.5,39.5 Z"/></g>
<g><path style="opacity:1" fill="#090202" d="M 55.5,40.5 C 55.5,41.1667 55.5,41.8333 55.5,42.5C 54.5028,42.5299 53.8361,42.0299 53.5,41C 54.0311,39.282 54.6977,39.1153 55.5,40.5 Z"/></g>
<g><path style="opacity:1" fill="#621515" d="M 40.5,37.5 C 40.5,38.1667 40.8333,38.5 41.5,38.5C 41.5,38.8333 41.5,39.1667 41.5,39.5C 40.5655,40.5676 40.2322,41.901 40.5,43.5C 38.5,43.5 36.5,43.5 34.5,43.5C 33.8333,43.5 33.1667,43.5 32.5,43.5C 32.8333,42.5 33.5,41.8333 34.5,41.5C 35.9187,42.4511 37.5853,42.7845 39.5,42.5C 39.5,41.5 39.5,40.5 39.5,39.5C 38.5,39.5 37.5,39.5 36.5,39.5C 36.5,39.1667 36.5,38.8333 36.5,38.5C 37.9587,38.5674 39.2921,38.2341 40.5,37.5 Z"/></g>
<g><path style="opacity:1" fill="#c32929" d="M 32.5,43.5 C 33.1667,43.5 33.8333,43.5 34.5,43.5C 34.5,43.8333 34.5,44.1667 34.5,44.5C 35.2625,45.2679 36.2625,45.7679 37.5,46C 36.2726,48.5617 34.6059,50.7284 32.5,52.5C 32.5,49.8333 32.5,47.1667 32.5,44.5C 32.5,44.1667 32.5,43.8333 32.5,43.5 Z"/></g>
<g><path style="opacity:1" fill="#e67f7e" d="M 30.5,44.5 C 31.1667,44.5 31.8333,44.5 32.5,44.5C 32.5,47.1667 32.5,49.8333 32.5,52.5C 31.1667,51.8333 29.8333,51.1667 28.5,50.5C 29.1667,48.5 29.8333,46.5 30.5,44.5 Z"/></g>
<g><path style="opacity:1" fill="#161215" d="M 30.5,44.5 C 29.8333,46.5 29.1667,48.5 28.5,50.5C 27.5084,50.3284 26.8417,50.6618 26.5,51.5C 26.5,51.8333 26.5,52.1667 26.5,52.5C 25.0222,52.762 23.6888,52.4287 22.5,51.5C 24.9101,48.7488 27.5768,46.4155 30.5,44.5 Z"/></g>
<g><path style="opacity:1" fill="#f99695" d="M 49.5,49.5 C 47.7056,50.2329 46.0389,51.2329 44.5,52.5C 44.0472,51.5416 43.3805,50.7083 42.5,50C 44.3333,48.8333 45.8333,47.3333 47,45.5C 48.0848,46.7356 48.9181,48.0689 49.5,49.5 Z"/></g>
<g><path style="opacity:1" fill="#7f4442" d="M 47.5,44.5 C 48.8333,45.1667 50.1667,45.8333 51.5,46.5C 51.5,47.5 51.5,48.5 51.5,49.5C 50.8333,49.5 50.1667,49.5 49.5,49.5C 48.9181,48.0689 48.0848,46.7356 47,45.5C 45.8333,47.3333 44.3333,48.8333 42.5,50C 43.3805,50.7083 44.0472,51.5416 44.5,52.5C 43.6136,53.7759 42.6136,53.7759 41.5,52.5C 39.9951,51.1585 39.3285,49.4918 39.5,47.5C 40.1667,47.5 40.8333,47.5 41.5,47.5C 42.1174,47.6107 42.6174,47.944 43,48.5C 44.0692,46.5926 45.5692,45.2593 47.5,44.5 Z"/></g>
<g><path style="opacity:1" fill="#ec8684" d="M 26.5,51.5 C 28.6044,52.7588 30.6044,54.2588 32.5,56C 31.0267,56.7096 30.3601,57.8762 30.5,59.5C 28.5,60.8333 26.5,62.1667 24.5,63.5C 22.5168,63.8432 21.1834,63.1765 20.5,61.5C 22.0783,60.9344 23.4116,59.9344 24.5,58.5C 23.6086,57.4104 22.6086,57.4104 21.5,58.5C 20.6143,57.675 20.281,56.675 20.5,55.5C 22.5439,54.478 24.5439,53.478 26.5,52.5C 26.5,52.1667 26.5,51.8333 26.5,51.5 Z"/></g>
<g><path style="opacity:1" fill="#5b1f1d" d="M 34.5,44.5 C 37.2384,44.7061 39.5718,45.7061 41.5,47.5C 40.8333,47.5 40.1667,47.5 39.5,47.5C 37.5993,50.7702 35.5993,54.1035 33.5,57.5C 32.7348,58.6119 31.7348,59.2786 30.5,59.5C 30.3601,57.8762 31.0267,56.7096 32.5,56C 30.6044,54.2588 28.6044,52.7588 26.5,51.5C 26.8417,50.6618 27.5084,50.3284 28.5,50.5C 29.8333,51.1667 31.1667,51.8333 32.5,52.5C 34.6059,50.7284 36.2726,48.5617 37.5,46C 36.2625,45.7679 35.2625,45.2679 34.5,44.5 Z"/></g>
<g><path style="opacity:1" fill="#d63b38" d="M 63.5,24.5 C 64.1471,25.2739 64.4805,26.2739 64.5,27.5C 61.5589,33.9917 59.2255,40.6584 57.5,47.5C 57.2427,50.9322 56.576,54.2655 55.5,57.5C 42.4226,61.8591 29.4226,66.1925 16.5,70.5C 14.0733,70.477 11.74,69.977 9.5,69C 15.4167,69.1237 20.4167,67.2903 24.5,63.5C 26.5,62.1667 28.5,60.8333 30.5,59.5C 31.7348,59.2786 32.7348,58.6119 33.5,57.5C 35.5993,54.1035 37.5993,50.7702 39.5,47.5C 39.3285,49.4918 39.9951,51.1585 41.5,52.5C 42.6136,53.7759 43.6136,53.7759 44.5,52.5C 46.0389,51.2329 47.7056,50.2329 49.5,49.5C 50.1667,49.5 50.8333,49.5 51.5,49.5C 53.5693,47.7077 54.9026,45.3744 55.5,42.5C 55.5,41.8333 55.5,41.1667 55.5,40.5C 59.0526,37.3953 61.0526,33.3953 61.5,28.5C 61.5271,26.8007 62.1938,25.4674 63.5,24.5 Z"/></g>
<g><path style="opacity:1" fill="#1e1515" d="M 20.5,55.5 C 20.281,56.675 20.6143,57.675 21.5,58.5C 22.6086,57.4104 23.6086,57.4104 24.5,58.5C 23.4116,59.9344 22.0783,60.9344 20.5,61.5C 20.6309,60.6236 20.2975,59.9569 19.5,59.5C 17.5017,61.3337 15.1684,62.3337 12.5,62.5C 14.8196,59.8521 17.4862,57.5188 20.5,55.5 Z"/></g>
<g><path style="opacity:1" fill="#353c51" d="M 88.5,57.5 C 88.6664,66.1731 88.4998,74.8397 88,83.5C 87.5348,84.9308 86.7014,86.0975 85.5,87C 72.9289,88.6269 60.2623,88.9602 47.5,88C 49.9818,86.5394 49.9818,85.0394 47.5,83.5C 68.9437,87.6604 80.277,78.9937 81.5,57.5C 82.3279,58.4147 83.3279,59.0814 84.5,59.5C 85.8669,58.7745 87.2003,58.1079 88.5,57.5 Z"/></g>
<g><path style="opacity:1" fill="#b22625" d="M 20.5,61.5 C 21.1834,63.1765 22.5168,63.8432 24.5,63.5C 20.4167,67.2903 15.4167,69.1237 9.5,69C 11.74,69.977 14.0733,70.477 16.5,70.5C 13.1206,71.4112 9.78726,72.7445 6.5,74.5C 5.57131,73.3112 5.23798,71.9778 5.5,70.5C 8.57253,68.4309 10.9059,65.7642 12.5,62.5C 15.1684,62.3337 17.5017,61.3337 19.5,59.5C 20.2975,59.9569 20.6309,60.6236 20.5,61.5 Z"/></g>
<g><path style="opacity:1" fill="#444444" d="M 53.5,61.5 C 56.5533,61.1107 59.22,61.7773 61.5,63.5C 59.8235,64.1834 59.1568,65.5168 59.5,67.5C 58.0222,67.238 56.6888,67.5713 55.5,68.5C 52.7792,71.2208 50.1126,73.8874 47.5,76.5C 47.9424,77.7387 48.6091,78.7387 49.5,79.5C 47.8235,80.1834 47.1568,81.5168 47.5,83.5C 44.8875,84.0955 44.8875,84.9288 47.5,86C 45.4325,86.6869 43.4325,86.5202 41.5,85.5C 40.7825,82.7293 40.4492,80.0626 40.5,77.5C 38.8888,78.3202 38.2222,79.6536 38.5,81.5C 33.1667,81.5 27.8333,81.5 22.5,81.5C 22.5,81.1667 22.5,80.8333 22.5,80.5C 25.5788,80.7399 28.5788,80.4066 31.5,79.5C 35.1973,75.9066 38.5307,72.0733 41.5,68C 39.8659,67.5065 38.1992,67.3398 36.5,67.5C 42.6464,66.6383 48.3131,64.6383 53.5,61.5 Z"/></g>
<g><path style="opacity:1" fill="#5f5f5f" d="M 61.5,63.5 C 62.1224,65.1216 63.1224,66.4549 64.5,67.5C 63.791,68.404 62.791,68.7373 61.5,68.5C 61.7852,70.288 61.4519,71.9547 60.5,73.5C 58.5,75.5 56.5,77.5 54.5,79.5C 52.9291,80.3094 51.2624,80.6427 49.5,80.5C 49.5,80.1667 49.5,79.8333 49.5,79.5C 48.6091,78.7387 47.9424,77.7387 47.5,76.5C 50.1126,73.8874 52.7792,71.2208 55.5,68.5C 56.6888,67.5713 58.0222,67.238 59.5,67.5C 59.1568,65.5168 59.8235,64.1834 61.5,63.5 Z"/></g>
<g><path style="opacity:1" fill="#606060" d="M 36.5,67.5 C 38.1992,67.3398 39.8659,67.5065 41.5,68C 38.5307,72.0733 35.1973,75.9066 31.5,79.5C 28.5788,80.4066 25.5788,80.7399 22.5,80.5C 22.5,80.1667 22.5,79.8333 22.5,79.5C 25.2375,79.6303 27.2375,78.4636 28.5,76C 28.1639,74.9701 27.4972,74.4701 26.5,74.5C 29.3348,71.2548 32.6682,68.9215 36.5,67.5 Z"/></g>
<g><path style="opacity:1" fill="#4a4a4a" d="M 64.5,67.5 C 66.9093,69.3984 68.9093,71.7318 70.5,74.5C 68.7118,75.2826 67.7118,76.6159 67.5,78.5C 67.0472,79.4584 66.3805,80.2917 65.5,81C 59.9836,81.8174 54.6503,81.6507 49.5,80.5C 51.2624,80.6427 52.9291,80.3094 54.5,79.5C 56.5,77.5 58.5,75.5 60.5,73.5C 61.4519,71.9547 61.7852,70.288 61.5,68.5C 62.791,68.7373 63.791,68.404 64.5,67.5 Z"/></g>
<g><path style="opacity:1" fill="#404040" d="M 26.5,74.5 C 27.4972,74.4701 28.1639,74.9701 28.5,76C 27.2375,78.4636 25.2375,79.6303 22.5,79.5C 18.3528,78.6753 14.0195,78.1753 9.5,78C 14.6212,74.0113 20.2879,72.8446 26.5,74.5 Z"/></g>
<g><path style="opacity:1" fill="#121317" d="M 86.5,51.5 C 88.3079,52.9179 88.9746,54.9179 88.5,57.5C 87.2003,58.1079 85.8669,58.7745 84.5,59.5C 83.3279,59.0814 82.3279,58.4147 81.5,57.5C 80.277,78.9937 68.9437,87.6604 47.5,83.5C 47.1568,81.5168 47.8235,80.1834 49.5,79.5C 49.5,79.8333 49.5,80.1667 49.5,80.5C 54.6503,81.6507 59.9836,81.8174 65.5,81C 66.3805,80.2917 67.0472,79.4584 67.5,78.5C 69.7373,77.551 72.0706,76.8844 74.5,76.5C 75.9556,72.4099 77.2889,68.2432 78.5,64C 78.309,61.9501 77.6424,60.1168 76.5,58.5C 77.8532,57.4763 78.5198,56.143 78.5,54.5C 81.1667,55.1667 83.8333,55.8333 86.5,56.5C 86.5,54.8333 86.5,53.1667 86.5,51.5 Z"/></g>
</svg>
